<?xml version="1.0" encoding="utf-8"?>
<!-- Generator: Adobe Illustrator 22.1.0, SVG Export Plug-In . SVG Version: 6.00 Build 0)  -->
<svg version="1.1" id="ÉåÉCÉÑÅ_x5B__x5F_1" xmlns="http://www.w3.org/2000/svg" xmlns:xlink="http://www.w3.org/1999/xlink"
	 x="0px" y="0px" viewBox="0 0 483.7 450" style="enable-background:new 0 0 483.7 450;" xml:space="preserve">
<style type="text/css">
	.st0{fill:#FFD7B5;}
	.st1{fill:#FFF49F;}
	.st2{fill:#593223;}
	.st3{fill:none;stroke:#593223;stroke-width:3.1748;stroke-linecap:round;stroke-linejoin:round;stroke-miterlimit:10;}
	.st4{fill:none;stroke:#FF6354;stroke-width:2.972;stroke-linecap:round;stroke-linejoin:round;stroke-miterlimit:10;}
	.st5{fill:#FFA593;}
	.st6{fill:#BF9058;}
	.st7{fill:#FFBC05;}
	.st8{fill:#DBDBDB;}
	.st9{fill:#696969;}
	.st10{fill:url(#SVGID_1_);}
	.st11{fill:#858585;}
	.st12{fill:#474747;}
</style>
<g>
	<g>
		<path class="st0" d="M110.1,349.5c0,0,42.2,10.3,45.7,28.4c3.5,18.1-11.1,46.6-47.2,33.3c-36.3-13.2-65.5-35.3-59.3-51
			S110.1,349.5,110.1,349.5z"/>
		<path class="st1" d="M202.4,328.7c-7.1-29.7-57.1-186.2-57.1-186.2S64.5,257.2,38.5,300.7C8.1,351.5,9.6,425.1,99.8,441.3
			C190.1,457.4,212.6,371.2,202.4,328.7z M106,372.3c-34-2.9-39.5-20.4-35.5-32.6c7.6-23.5,68.2-169,68.2-169s22,131.5,19.9,172.7
			C157.2,370,134.7,374.8,106,372.3z"/>
		<g>
			<path class="st0" d="M155.2,306.9c0.2,34.6-21.1,62.8-69.7,62.9c-48.6,0.1-70.1-27.9-70.2-62.5C15,272.6,39,240.1,84.9,240
				C130.9,239.8,155.1,272.2,155.2,306.9z"/>
			
				<ellipse transform="matrix(0.9999 -1.280114e-02 1.280114e-02 0.9999 -4.0643 0.2951)" class="st0" cx="21" cy="317.6" rx="13.8" ry="15.4"/>
			
				<ellipse transform="matrix(0.9999 -1.277176e-02 1.277176e-02 0.9999 -4.0408 1.9235)" class="st0" cx="148.6" cy="317.3" rx="13.8" ry="15.4"/>
			<path class="st2" d="M55.9,313.9c0,3.9-3.1,7-7,7c-3.9,0-7-3.1-7-7c0-3.9,3.1-7,7-7C52.8,307.1,55.9,310.2,55.9,313.9z"/>
			<path class="st2" d="M121.2,313.9c0,3.9-3.1,7-7,7c-3.9,0-7-3.1-7-7s3.1-7,7-7C118.1,306.9,121.2,310,121.2,313.9z"/>
			<path class="st3" d="M74.3,327c0,0,1.9-3.3,6.6-3.3s6.4,3.4,6.4,3.4"/>
			<path class="st4" d="M62,339.8c0,0,5.4,7.2,19.6,7.2s20.5-7.6,20.5-7.6"/>
			
				<ellipse transform="matrix(1.181949e-03 -1 1 1.181949e-03 -294.1325 372.4477)" class="st5" cx="39.4" cy="333.5" rx="8.2" ry="10.4"/>
			
				<ellipse transform="matrix(1.206147e-03 -1 1 1.206147e-03 -207.6083 458.749)" class="st5" cx="125.8" cy="333.3" rx="8.2" ry="10.4"/>
			<path class="st6" d="M89.6,238.7c-0.3,0.1-0.6,0.1-0.8,0c-2.4-0.6-15.4-3.6-26.2,1c-6.1,2.5-9,5.3-10.5,7.4
				c-0.9,1.3,0.3,3,1.8,2.7l14.6-2.7c1.5-0.3,3.2,0.5,2.5,1.8c-0.8,1.4-2.9,4.8-1.6,5.6c0.6,0.4,2.1-0.5,2.1-0.5l8.6-6
				c0.6-0.4,1.6-0.2,2.2,0.1c1.5,0.8,4.9,3.1,7,4.9c1.9,1.6,2.5-0.2,2.7-1.6c0.1-1.2,0.2-2.5,0.1-3.8c-0.1-1,0.2-2.2,1.2-2.1
				c3.9,0.1,12.5,0.6,18.7,2.8c1.7,0.6,3.1-1.5,1.8-2.8C110.2,240.6,102.7,235.7,89.6,238.7z"/>
		</g>
		<path class="st1" d="M145.5,143.9c0,0-43.2-23-63.3,10.4C82.1,154.3,107.1,181.6,145.5,143.9z"/>
		<path class="st1" d="M144.7,144c0,0,48.9-0.8,51.6,38.1C196.3,182.1,161.7,195,144.7,144z"/>
	</g>
	<g>
		<path class="st7" d="M375.8,215.4c0,0,19.6,16.9,25.6,20.8c6.1,3.9,36.4,30,39.9,33.2c3.5,3.2,18.9,19.1,21.1,18.8
			c2.1-0.3,3.7-4.6,2.3-9.8c-1.4-5.2-6.4-14.1-10-14.6c-3.5-0.5-13.3-1.6-13.3-1.6s-27.5-22.5-34.7-28.9
			c-7.2-6.4-15.3-17.2-15.3-17.2L375.8,215.4z"/>
		<path class="st8" d="M353.9,128.1c0,0-45.3-15.6-47.7-13.8c-2.4,1.8-4.5,3-5.1,7.7c-0.7,4.7,11.8,28.4,11.8,28.4l28.2,11
			L353.9,128.1z"/>
		<path class="st9" d="M301.1,122c0,0,0.5-29.6,0.7-41.2c0.2-11.6,1.5-28.3,9.7-27.2c8.3,1.2,6,19.9,5.4,26.4
			c-0.6,6.5-2.5,22.7-2.5,22.7s12.4-27.5,15-33.4c2.7-5.8,6.3-10.8,12.8-7c6.4,3.9,1.8,10.5-1.2,15.9c-3,5.4-12.9,28.5-12.9,28.5
			s18.4-23.4,20.7-26c2.2-2.6,5.9-8.3,10.5-3.6c4.5,4.7,0.4,10.3-2.3,14c-2.7,3.6-18.2,22.3-18.2,22.3s26-22.3,25.8-21.2
			c-0.2,1.1,3,51.6,3,51.6s-23.1-11-38-17.5C314.6,119.9,305.1,117.1,301.1,122z"/>
		
			<linearGradient id="SVGID_1_" gradientUnits="userSpaceOnUse" x1="-1987.0715" y1="578.0733" x2="-1987.0715" y2="752.5589" gradientTransform="matrix(0.99 0.1409 0.1409 -0.99 2195.0894 1079.2313)">
			<stop  offset="0" style="stop-color:#C7C7C7"/>
			<stop  offset="9.246016e-02" style="stop-color:#D2D2D2"/>
			<stop  offset="0.2762" style="stop-color:#E2E2E2"/>
			<stop  offset="0.4169" style="stop-color:#E8E8E8"/>
			<stop  offset="0.8693" style="stop-color:#E6E6E6"/>
		</linearGradient>
		<path class="st10" d="M433.9,218.9c-9-5.7-33-15.8-33-15.8s-1.8-2.6-5.2-6.6c1-1.5,2.3-2.5,4.2-2.6c6.7-0.5,30.8-48.3,24.2-74.5
			s-44.3-58.6-44.3-58.6s-1-0.9-4.2,3.8c-2.7,4-31.4,59.8-48.5,80.5c-2.9-0.7-6.1-1-9.7-0.6c-16.3,1.6-26,10.5-37.2,7.2
			c-11.2-3.4-34.3-9.3-38.5-14.8c-4.2-5.4-8-16.2-22.2-19.6c-13.8-3.2-22.3,12.3-24,14.7c-1.6,2.4-4.1,12.7,1.7,12.7
			c5.8-0.1,37.4,6.7,57.1,18.8c14.4,8.8,48.4,36.7,86.5,47.4c34,9.6,55.3,9.7,55.3,9.7s32.3,17.5,36.4,23.9
			C432.4,244.4,442.9,224.6,433.9,218.9z"/>
		<path class="st11" d="M375.5,64.5c0,0,13.5-37.6,19.2-47.3c5.8-9.8,11.5-13.7,14.4-7.5c2.8,6.2-19.4,56.2-19.4,56.2
			s21.3-31.3,27.2-38.6c5.8-7.2,12.6-14,19.4-9.3c6.7,4.7-1.8,15.5-4.9,19c-3.1,3.6-25.2,34.8-25.2,34.8s37.2-25.8,41.4-29.6
			c4.2-3.8,13.3-5.8,16.3-0.6c2.9,5.1-2.5,9.9-7.1,13.6c-4.6,3.8-34.5,28-34.5,28s35.1-14.1,39.8-15.9c4.7-1.9,12.6-3.3,14.3,3.5
			c1.6,6.8-4.1,10.4-10.8,13.5c-6.7,3.1-33.8,12.4-33.8,12.4s29.7-4.6,32.4-5.2c2.7-0.7,9.4-1.6,8.9,4.2c-0.5,5.8-5.3,8.7-9.1,10
			c-3.9,1.3-11.4,5.3-14.1,13.7c-2.6,8.4-1.7,27.5-11.1,41.6c-9.3,14.1-16.1,30.3-25.4,31.5c-9.4,1.3-13.5,1.4-13.5,1.4
			s16.3-52.6,13.5-79.6C410.5,87.1,375.5,64.5,375.5,64.5z"/>
		<path class="st12" d="M213.5,131.7c-0.3,1.9-2.1,3.3-4.1,3s-3.3-2.1-3.1-4.1c0.3-1.9,2.1-3.3,4.1-3
			C212.3,127.9,213.7,129.7,213.5,131.7z"/>
		<path class="st7" d="M195.2,132.1c0,0,8.7,4.3,5.7,13c0,0-64.1,8.1-65.4,4.6C134.3,146.1,195.2,132.1,195.2,132.1z"/>
	</g>
</g>
</svg>
